<svg xmlns="http://www.w3.org/2000/svg" viewBox="0 0 320 180">
  <defs>
    <radialGradient id="curtain-stage" cx="50%" cy="40%" r="75%">
      <stop offset="0%" stop-color="#4a2e26"/>
      <stop offset="100%" stop-color="#221512"/>
    </radialGradient>
  </defs>
  <rect x="0" y="0" width="320" height="180" fill="url(#curtain-stage)"/>
  <rect x="0" y="140" width="320" height="40" fill="#2c1c17"/>
  <rect x="0" y="0" width="50" height="180" fill="#7a3232"/>
  <rect x="8" y="0" width="4" height="180" fill="#8f4040" opacity="0.6"/>
  <rect x="22" y="0" width="4" height="180" fill="#652929" opacity="0.6"/>
  <rect x="36" y="0" width="4" height="180" fill="#8f4040" opacity="0.6"/>
  <circle cx="50" cy="30" r="11" fill="#7a3232"/>
  <circle cx="50" cy="70" r="11" fill="#7a3232"/>
  <circle cx="50" cy="110" r="11" fill="#7a3232"/>
  <circle cx="50" cy="150" r="11" fill="#7a3232"/>
  <rect x="270" y="0" width="50" height="180" fill="#7a3232"/>
  <rect x="308" y="0" width="4" height="180" fill="#8f4040" opacity="0.6"/>
  <rect x="294" y="0" width="4" height="180" fill="#652929" opacity="0.6"/>
  <rect x="280" y="0" width="4" height="180" fill="#8f4040" opacity="0.6"/>
  <circle cx="270" cy="30" r="11" fill="#7a3232"/>
  <circle cx="270" cy="70" r="11" fill="#7a3232"/>
  <circle cx="270" cy="110" r="11" fill="#7a3232"/>
  <circle cx="270" cy="150" r="11" fill="#7a3232"/>
  <rect x="0" y="0" width="320" height="26" fill="#8a3a3a"/>
  <circle cx="30" cy="26" r="12" fill="#8a3a3a"/>
  <circle cx="70" cy="26" r="12" fill="#8a3a3a"/>
  <circle cx="110" cy="26" r="12" fill="#8a3a3a"/>
  <circle cx="150" cy="26" r="12" fill="#8a3a3a"/>
  <circle cx="190" cy="26" r="12" fill="#8a3a3a"/>
  <circle cx="230" cy="26" r="12" fill="#8a3a3a"/>
  <circle cx="270" cy="26" r="12" fill="#8a3a3a"/>
  <circle cx="310" cy="26" r="12" fill="#8a3a3a"/>
</svg>
