<svg xmlns="http://www.w3.org/2000/svg" viewBox="0 0 320 180">
  <rect x="0" y="0" width="320" height="180" fill="#20242f"/>
  <rect x="80" y="0" width="2" height="150" fill="#333849" opacity="0.6"/>
  <rect x="160" y="0" width="2" height="150" fill="#333849" opacity="0.6"/>
  <rect x="240" y="0" width="2" height="150" fill="#333849" opacity="0.6"/>
  <rect x="0" y="98" width="46" height="10" fill="#191c25" opacity="0.6"/>
  <rect x="50" y="106" width="30" height="18" fill="#191c25" opacity="0.6"/>
  <rect x="86" y="92" width="20" height="24" fill="#191c25" opacity="0.6"/>
  <rect x="150" y="102" width="40" height="14" fill="#191c25" opacity="0.6"/>
  <rect x="196" y="94" width="26" height="22" fill="#191c25" opacity="0.6"/>
  <rect x="230" y="104" width="50" height="12" fill="#191c25" opacity="0.6"/>
  <rect x="286" y="96" width="34" height="20" fill="#191c25" opacity="0.6"/>
  <ellipse cx="60" cy="55" rx="42" ry="30" fill="#4d7fa0" opacity="0.25"/>
  <rect x="30" y="36" width="60" height="38" rx="2" fill="#5b8fae"/>
  <rect x="36" y="42" width="48" height="26" fill="#4d7fa0" opacity="0.7"/>
  <ellipse cx="256" cy="55" rx="42" ry="30" fill="#4d7fa0" opacity="0.25"/>
  <rect x="226" y="36" width="60" height="38" rx="2" fill="#5b8fae"/>
  <rect x="232" y="42" width="48" height="26" fill="#4d7fa0" opacity="0.7"/>
  <rect x="0" y="150" width="320" height="30" fill="#171a22"/>
  <rect x="0" y="150" width="320" height="3" fill="#2a2f3c"/>
</svg>
